<mxfile host="app.diagrams.net" modified="2021-03-20T14:59:28.021Z" agent="5.0 (Windows NT 10.0; Win64; x64) AppleWebKit/537.36 (KHTML, like Gecko) Chrome/89.0.4389.90 Safari/537.36 Edg/89.0.774.54" etag="Dl8cpTISrhH0VD0Emcbe" version="14.3.1" type="github">
  <diagram id="Ghbf7SGEfbt2_YfuzdKA" name="Synchronous Machines ">
    <mxGraphModel dx="868" dy="521" grid="1" gridSize="10" guides="1" tooltips="1" connect="1" arrows="1" fold="1" page="1" pageScale="1" pageWidth="850" pageHeight="1100" math="0" shadow="0">
      <root>
        <mxCell id="0" />
        <mxCell id="1" parent="0" />
        <mxCell id="XUVmQutD-YXNH8eTUAyd-6" style="edgeStyle=orthogonalEdgeStyle;rounded=0;orthogonalLoop=1;jettySize=auto;html=1;entryX=0;entryY=0.5;entryDx=0;entryDy=0;" edge="1" parent="1" source="XUVmQutD-YXNH8eTUAyd-1" target="XUVmQutD-YXNH8eTUAyd-3">
          <mxGeometry relative="1" as="geometry" />
        </mxCell>
        <mxCell id="XUVmQutD-YXNH8eTUAyd-7" style="edgeStyle=orthogonalEdgeStyle;rounded=0;orthogonalLoop=1;jettySize=auto;html=1;entryX=0.5;entryY=0;entryDx=0;entryDy=0;" edge="1" parent="1" source="XUVmQutD-YXNH8eTUAyd-1" target="XUVmQutD-YXNH8eTUAyd-2">
          <mxGeometry relative="1" as="geometry">
            <mxPoint x="500" y="270" as="targetPoint" />
            <Array as="points">
              <mxPoint x="420" y="120" />
              <mxPoint x="625" y="120" />
            </Array>
          </mxGeometry>
        </mxCell>
        <mxCell id="XUVmQutD-YXNH8eTUAyd-16" style="edgeStyle=orthogonalEdgeStyle;rounded=0;orthogonalLoop=1;jettySize=auto;html=1;" edge="1" parent="1" source="XUVmQutD-YXNH8eTUAyd-1">
          <mxGeometry relative="1" as="geometry">
            <mxPoint x="420" y="320" as="targetPoint" />
          </mxGeometry>
        </mxCell>
        <mxCell id="XUVmQutD-YXNH8eTUAyd-26" style="edgeStyle=orthogonalEdgeStyle;rounded=0;orthogonalLoop=1;jettySize=auto;html=1;entryX=1;entryY=0.5;entryDx=0;entryDy=0;" edge="1" parent="1" source="XUVmQutD-YXNH8eTUAyd-1" target="XUVmQutD-YXNH8eTUAyd-14">
          <mxGeometry relative="1" as="geometry" />
        </mxCell>
        <mxCell id="XUVmQutD-YXNH8eTUAyd-27" style="edgeStyle=orthogonalEdgeStyle;rounded=0;orthogonalLoop=1;jettySize=auto;html=1;exitX=0.5;exitY=1;exitDx=0;exitDy=0;entryX=0.5;entryY=0;entryDx=0;entryDy=0;" edge="1" parent="1" source="XUVmQutD-YXNH8eTUAyd-1" target="XUVmQutD-YXNH8eTUAyd-15">
          <mxGeometry relative="1" as="geometry">
            <Array as="points">
              <mxPoint x="420" y="100" />
              <mxPoint x="145" y="100" />
            </Array>
          </mxGeometry>
        </mxCell>
        <mxCell id="XUVmQutD-YXNH8eTUAyd-1" value="&lt;b&gt;Synchronous Machines&amp;nbsp;&lt;/b&gt;" style="rounded=1;whiteSpace=wrap;html=1;fillColor=#dae8fc;strokeColor=#6c8ebf;" vertex="1" parent="1">
          <mxGeometry x="340" y="40" width="160" height="40" as="geometry" />
        </mxCell>
        <mxCell id="XUVmQutD-YXNH8eTUAyd-2" value="Generator" style="rounded=1;whiteSpace=wrap;html=1;" vertex="1" parent="1">
          <mxGeometry x="580" y="150" width="90" height="30" as="geometry" />
        </mxCell>
        <mxCell id="XUVmQutD-YXNH8eTUAyd-3" value="Motor" style="rounded=1;whiteSpace=wrap;html=1;" vertex="1" parent="1">
          <mxGeometry x="460" y="150" width="90" height="30" as="geometry" />
        </mxCell>
        <mxCell id="XUVmQutD-YXNH8eTUAyd-24" value="" style="edgeStyle=orthogonalEdgeStyle;rounded=0;orthogonalLoop=1;jettySize=auto;html=1;" edge="1" parent="1" source="XUVmQutD-YXNH8eTUAyd-14" target="XUVmQutD-YXNH8eTUAyd-22">
          <mxGeometry relative="1" as="geometry">
            <Array as="points">
              <mxPoint x="310" y="170" />
              <mxPoint x="310" y="170" />
            </Array>
          </mxGeometry>
        </mxCell>
        <mxCell id="XUVmQutD-YXNH8eTUAyd-14" value="Rotor" style="rounded=1;whiteSpace=wrap;html=1;arcSize=12;" vertex="1" parent="1">
          <mxGeometry x="265" y="130" width="90" height="30" as="geometry" />
        </mxCell>
        <mxCell id="XUVmQutD-YXNH8eTUAyd-23" value="" style="edgeStyle=orthogonalEdgeStyle;rounded=0;orthogonalLoop=1;jettySize=auto;html=1;" edge="1" parent="1" source="XUVmQutD-YXNH8eTUAyd-15" target="XUVmQutD-YXNH8eTUAyd-21">
          <mxGeometry relative="1" as="geometry" />
        </mxCell>
        <mxCell id="XUVmQutD-YXNH8eTUAyd-15" value="Stator" style="rounded=1;whiteSpace=wrap;html=1;" vertex="1" parent="1">
          <mxGeometry x="100" y="130" width="90" height="30" as="geometry" />
        </mxCell>
        <mxCell id="XUVmQutD-YXNH8eTUAyd-21" value="&lt;div style=&quot;font-size: 13px&quot;&gt;&lt;font style=&quot;font-size: 13px&quot;&gt;Stationary Part&lt;/font&gt;&lt;/div&gt;&lt;div style=&quot;font-size: 13px&quot;&gt;&lt;span&gt;&lt;font style=&quot;font-size: 13px&quot;&gt;Armature Coils&lt;/font&gt;&lt;/span&gt;&lt;/div&gt;&lt;div style=&quot;font-size: 13px&quot;&gt;&lt;span&gt;&lt;font style=&quot;font-size: 13px&quot;&gt;3 Phase Voltage&lt;/font&gt;&lt;/span&gt;&lt;/div&gt;&lt;div style=&quot;font-size: 13px&quot;&gt;&lt;font style=&quot;font-size: 13px&quot;&gt;Star Connection&lt;/font&gt;&lt;/div&gt;" style="rounded=0;whiteSpace=wrap;html=1;align=center;" vertex="1" parent="1">
          <mxGeometry x="70" y="210" width="150" height="90" as="geometry" />
        </mxCell>
        <mxCell id="XUVmQutD-YXNH8eTUAyd-22" value="&lt;div style=&quot;font-size: 13px;&quot;&gt;&lt;span style=&quot;font-size: 13px;&quot;&gt;Rotating Part&lt;/span&gt;&lt;/div&gt;&lt;div style=&quot;font-size: 13px;&quot;&gt;&lt;span style=&quot;font-size: 13px;&quot;&gt;Field Coils&lt;/span&gt;&lt;/div&gt;&lt;div style=&quot;font-size: 13px;&quot;&gt;&lt;span style=&quot;font-size: 13px;&quot;&gt;DC Voltage&lt;/span&gt;&lt;/div&gt;" style="rounded=0;whiteSpace=wrap;html=1;align=center;fontSize=13;" vertex="1" parent="1">
          <mxGeometry x="240" y="210" width="140" height="90" as="geometry" />
        </mxCell>
      </root>
    </mxGraphModel>
  </diagram>
</mxfile>
